<?xml version="1.0" encoding="iso-8859-1"?>
<!-- Generator: Adobe Illustrator 19.0.0, SVG Export Plug-In . SVG Version: 6.00 Build 0)  -->
<svg xmlns="http://www.w3.org/2000/svg" xmlns:xlink="http://www.w3.org/1999/xlink" version="1.1" id="Layer_1" x="0px" y="0px" viewBox="0 0 512 512" style="enable-background:new 0 0 512 512;" xml:space="preserve" width="512px" height="512px">
<g>
	<g>
		<path d="M503.328,407.907h-16.553v-154.79c0-4.789-3.883-8.672-8.672-8.672s-8.672,3.883-8.672,8.672v154.79h-38.029v-86.869    c0-0.003,0-0.007,0-0.012c0-0.005,0-0.007,0-0.012V208.64c0-0.003,0-0.007,0-0.012s0-0.007,0-0.012V118.81    c0-0.003,0-0.007,0-0.012s0-0.007,0-0.012V63.505c0-0.023,0.003-0.045,0.003-0.067s-0.003-0.045-0.003-0.067V42.59    c0-0.69,0.561-1.251,1.251-1.251h35.527c0.69,0,1.251,0.561,1.251,1.251v181.621c0,4.789,3.883,8.672,8.672,8.672    s8.672-3.883,8.672-8.672V42.59c0-10.254-8.341-18.595-18.595-18.595h-35.527c-10.254,0-18.595,8.341-18.595,18.595v12.176H97.941    V42.59c0-10.254-8.341-18.595-18.595-18.595H43.819c-10.254,0-18.595,8.341-18.595,18.595v365.317H8.672    c-4.789,0-8.672,3.883-8.672,8.672v62.754c0,4.789,3.883,8.672,8.672,8.672h494.656c4.789,0,8.672-3.883,8.672-8.672v-62.754    C512,411.79,508.117,407.907,503.328,407.907z M97.941,127.47h26.756c4.789,0,8.672-3.883,8.672-8.672s-3.883-8.672-8.672-8.672    H97.941V72.11h316.118v38.016H153.603c-4.789,0-8.672,3.883-8.672,8.672s3.883,8.672,8.672,8.672H414.06v72.486H310.848v-14.987    c0-10.563-8.594-19.158-19.158-19.158h-15.689c-10.563,0-19.158,8.594-19.158,19.158v14.987h-44.764v-14.987    c0-10.563-8.594-19.158-19.158-19.158h-15.689c-3.87,0-7.471,1.162-10.486,3.144c-3.015-1.982-6.616-3.144-10.486-3.144h-15.689    c-10.563,0-19.158,8.594-19.158,19.158v14.987H97.941V127.47z M293.503,184.97v47.319c0,1-0.814,1.814-1.814,1.814H276    c-1,0-1.814-0.814-1.814-1.814V184.97c0-1,0.814-1.814,1.814-1.814h15.689C292.689,183.156,293.503,183.97,293.503,184.97z     M194.733,184.97v47.319c0,1-0.814,1.814-1.814,1.814H177.23c-1,0-1.814-0.814-1.814-1.814V184.97c0-1,0.814-1.814,1.814-1.814    h15.689C193.919,183.156,194.733,183.97,194.733,184.97z M158.07,184.97v47.319c0,1-0.814,1.814-1.814,1.814h-15.689    c-1,0-1.814-0.814-1.814-1.814V184.97c0-1,0.814-1.814,1.814-1.814h15.689C157.257,183.156,158.07,183.97,158.07,184.97z     M97.941,217.301h23.467v14.988c0,10.563,8.594,19.158,19.158,19.158h15.689c3.87,0,7.471-1.162,10.486-3.144    c3.016,1.982,6.616,3.144,10.486,3.144h15.689c10.563,0,19.158-8.594,19.158-19.158v-14.988h44.764v14.988    c0,10.563,8.594,19.158,19.158,19.158h15.689c10.563,0,19.158-8.594,19.158-19.158v-14.988h103.212v95.055h-23.464v-14.988    c0-10.563-8.594-19.158-19.158-19.158h-15.689c-3.87,0-7.471,1.162-10.486,3.144c-3.016-1.982-6.616-3.144-10.486-3.144h-15.689    c-10.563,0-19.158,8.594-19.158,19.158v14.988H196.408v-14.988c0-10.563-8.594-19.158-19.158-19.158h-15.689    c-10.563,0-19.158,8.594-19.158,19.158v14.988H97.941V217.301z M373.247,297.366v47.319c0,1-0.814,1.814-1.814,1.814h-15.689    c-1,0-1.814-0.814-1.814-1.814v-47.319c0-1,0.814-1.814,1.814-1.814h15.689C372.433,295.552,373.247,296.366,373.247,297.366z     M336.585,297.366v47.319c0,1-0.814,1.814-1.814,1.814h-15.689c-1,0-1.814-0.814-1.814-1.814v-47.319c0-1,0.814-1.814,1.814-1.814    h15.689C335.771,295.552,336.585,296.366,336.585,297.366z M179.061,297.366v47.319c0,1-0.814,1.814-1.814,1.814h-15.689    c-1,0-1.814-0.814-1.814-1.814v-47.319c0-1,0.814-1.814,1.814-1.814h15.689C178.247,295.552,179.061,296.366,179.061,297.366z     M97.941,407.907v-78.208H142.4v14.987c0,10.563,8.594,19.158,19.158,19.158h15.689c10.563,0,19.158-8.594,19.158-19.158v-14.987    h103.518v14.987c0,10.563,8.594,19.158,19.158,19.158h15.689c3.87,0,7.471-1.162,10.486-3.144    c3.016,1.982,6.616,3.144,10.486,3.144h15.689c10.563,0,19.158-8.594,19.158-19.158v-14.987h23.467v78.209L97.941,407.907    L97.941,407.907z M42.568,42.59c0-0.69,0.561-1.251,1.251-1.251h35.527c0.69,0,1.251,0.561,1.251,1.251v76.141    c0,0.023-0.003,0.045-0.003,0.067s0.003,0.045,0.003,0.067v89.696c0,0.023-0.003,0.045-0.003,0.067s0.003,0.045,0.003,0.067    V320.96c0,0.023-0.003,0.045-0.003,0.067c0,0.022,0.003,0.045,0.003,0.067v86.813H42.568V42.59z M494.656,470.662H17.344v-45.41    h477.313V470.662z" fill="#FFFFFF"/>
	</g>
</g>
<g>
</g>
<g>
</g>
<g>
</g>
<g>
</g>
<g>
</g>
<g>
</g>
<g>
</g>
<g>
</g>
<g>
</g>
<g>
</g>
<g>
</g>
<g>
</g>
<g>
</g>
<g>
</g>
<g>
</g>
</svg>
